<svg width="180" height="80" viewBox="0 0 180 80" fill="none" xmlns="http://www.w3.org/2000/svg">
<g clip-path="url(#clip0_1486_5067)">
<path d="M80 0H0V80H80V0Z" fill="#54E6A5"/>
<path d="M24.2429 44.4797L30.4648 59.9056H18L24.2429 44.4797Z" fill="#061818"/>
<path d="M45.3825 59.9056H34.3402L26.1846 39.6865L31.7166 26.0186L45.3825 59.9056Z" fill="#061818"/>
<path d="M61.3114 59.9057H49.2571L33.7485 21H45.5626L61.3114 59.9057Z" fill="#061818"/>
<path d="M97.3422 28.4873H92.5592L84.9805 45.6564H89.935L91.2738 42.3207H98.5545L99.8933 45.6564H104.947L97.3422 28.4873ZM92.7108 38.7398L94.9138 33.2498L97.1151 38.7398H92.7108Z" fill="white"/>
<path d="M126.285 45.6564H121.82L121.777 36.547L117.357 43.9639H115.199L110.808 36.8019V45.6564H106.319V28.4873H110.317L116.361 38.407L122.237 28.4873H126.235L126.285 45.6564Z" fill="white"/>
<path d="M133.471 46C132.212 46 131.071 45.7832 130.05 45.3499C129.062 44.9425 128.19 44.298 127.511 43.4733L130.16 40.3341C130.618 40.9227 131.091 41.3682 131.582 41.6706C132.045 41.9651 132.58 42.1225 133.128 42.1249C134.566 42.1249 135.285 41.291 135.285 39.6232V32.242H129.35V28.4873H140.096V39.3285C140.096 41.569 139.532 43.2409 138.403 44.3443C137.275 45.4477 135.631 45.9996 133.471 46Z" fill="white"/>
<path d="M153.314 28.4873H148.531L140.951 45.6564H145.906L147.245 42.3207H154.526L155.864 45.6564H160.917L153.314 28.4873ZM148.682 38.7398L150.884 33.2498L153.087 38.7398H148.682Z" fill="white"/>
<path d="M178.786 32.5094C177.975 31.2342 176.851 30.245 175.413 29.5417C173.974 28.8384 172.306 28.487 170.409 28.4873H162.289V45.6564H170.409C172.306 45.6564 173.974 45.3048 175.413 44.6015C176.851 43.8982 177.975 42.905 178.785 41.6218C179.594 40.3383 179.998 38.8216 179.998 37.0716C179.999 35.3058 179.595 33.7851 178.786 32.5094ZM174.481 39.6102C174.087 40.3075 173.494 40.8713 172.777 41.2295C172.05 41.5974 171.195 41.7811 170.215 41.7808H167.149V32.3653H170.215C171.196 32.3653 172.051 32.5493 172.777 32.9171C173.491 33.273 174.085 33.8321 174.481 34.5239C174.89 35.2269 175.094 36.0771 175.094 37.0745C175.094 38.0537 174.89 38.8989 174.481 39.6102Z" fill="white"/>
</g>
<defs>
<clipPath id="clip0_1486_5067">
<rect width="180" height="80" fill="white"/>
</clipPath>
</defs>
</svg>
