<svg width="180" height="80" viewBox="0 0 180 80" fill="none" xmlns="http://www.w3.org/2000/svg">
<path d="M61.0081 9H0V70.0081H61.0081V9Z" fill="#54E6A5"/>
<path d="M15.0915 43.4807L21.3134 58.7137H8.84863L15.0915 43.4807Z" fill="#061818"/>
<path d="M36.2311 58.7137H25.1888L17.0332 38.7473L22.5652 25.2502L36.2311 58.7137Z" fill="#061818"/>
<path d="M52.1601 58.7138H40.1058L24.5972 20.2944H36.4113L52.1601 58.7138Z" fill="#061818"/>
<path d="M84.7044 28.4873H79.1901L70.4526 48.2815H76.1646L77.7081 44.4358H86.102L87.6455 48.2815H93.4714L84.7044 28.4873ZM79.3649 40.3073L81.9047 33.978L84.4426 40.3073H79.3649Z" fill="#061818"/>
<path d="M118.072 48.2815H112.925L112.875 37.7793L107.779 46.3302H105.291L100.229 38.0732V48.2815H95.0542V28.4873H99.6632L106.631 39.9237L113.406 28.4873H118.015L118.072 48.2815Z" fill="#061818"/>
<path d="M126.358 48.6776C124.906 48.6776 123.591 48.4277 122.413 47.9281C121.274 47.4584 120.269 46.7154 119.486 45.7646L122.54 42.1454C123.068 42.824 123.614 43.3376 124.18 43.6863C124.713 44.0258 125.33 44.2073 125.962 44.21C127.62 44.21 128.449 43.2486 128.449 41.3258V32.8161H121.607V28.4873H133.995V40.9861C133.995 43.5691 133.345 45.4967 132.044 46.7688C130.743 48.0409 128.848 48.6771 126.358 48.6776Z" fill="#061818"/>
<path d="M149.234 28.4873H143.72L134.981 48.2815H140.693L142.237 44.4358H150.631L152.174 48.2815H158L149.234 28.4873ZM143.894 40.3073L146.432 33.978L148.972 40.3073H143.894Z" fill="#061818"/>
<path d="M178.6 33.1244C177.665 31.6542 176.369 30.5137 174.711 29.7029C173.052 28.8921 171.129 28.4869 168.942 28.4873H159.581V48.2815H168.942C171.129 48.2815 173.052 47.8761 174.711 47.0653C176.369 46.2545 177.665 45.1094 178.599 43.63C179.532 42.1502 179.998 40.4016 179.998 38.3841C179.999 36.3483 179.533 34.5951 178.6 33.1244ZM173.637 41.3108C173.183 42.1148 172.499 42.7648 171.673 43.1777C170.834 43.6019 169.849 43.8137 168.719 43.8133H165.184V32.9582H168.719C169.85 32.9582 170.835 33.1703 171.673 33.5944C172.496 34.0047 173.18 34.6493 173.637 35.4469C174.108 36.2573 174.344 37.2375 174.344 38.3874C174.344 39.5163 174.108 40.4908 173.637 41.3108Z" fill="#061818"/>
</svg>
